<?xml version="1.0" standalone="no"?>
<!DOCTYPE svg PUBLIC "-//W3C//DTD SVG 20010904//EN" "http://www.w3.org/TR/2001/REC-SVG-20010904/DTD/svg10.dtd">
<svg xmlns="http://www.w3.org/2000/svg" version="1.0" width="134.000000pt" height="147.000000pt" viewBox="0 0 134.000000 147.000000" preserveAspectRatio="xMidYMid meet">
<metadata>
Created by potrace 1.16, written by Peter Selinger 2001-2019
<meta name="Producer" content="Online-Convert"/></metadata>
<g transform="translate(0.000000,147.000000) scale(0.100000,-0.100000)" fill="#000000" stroke="none">
<path d="M446 1315 c-13 -14 -16 -41 -16 -166 0 -85 -5 -159 -10 -170 -10 -18 -23 -19 -169 -19 -87 0 -161 -3 -165 -7 -4 -5 -13 -8 -19 -8 -9 0 -13 -56 -15 -200 -3 -202 1 -251 18 -240 6 3 10 1 10 -4 0 -7 40 -11 114 -11 l114 0 25 43 c29 49 54 123 62 187 3 25 8 56 11 70 8 36 8 53 -1 73 -5 13 -4 16 9 11 8 -3 18 -14 21 -25 7 -20 35 -27 35 -9 0 17 3 24 14 37 6 6 22 28 36 47 14 20 31 36 38 36 14 0 11 -7 -22 -54 -11 -16 -15 -26 -8 -22 8 5 10 2 6 -8 -10 -25 3 -19 48 24 24 22 46 40 50 40 19 0 5 -28 -22 -49 -17 -12 -28 -27 -24 -33 4 -7 3 -8 -4 -4 -6 4 -16 -4 -23 -16 -11 -21 -11 -22 4 -9 17 13 24 3 10 -15 -10 -11 27 22 62 55 42 43 41 13 -2 -32 -79 -82 -75 -108 8 -54 23 15 44 26 46 23 3 -2 -16 -24 -42 -48 -26 -23 -60 -63 -77 -88 -17 -25 -44 -59 -60 -76 -16 -17 -40 -61 -53 -99 -22 -60 -25 -84 -25 -205 0 -116 3 -140 17 -151 12 -11 61 -14 209 -15 192 0 194 0 216 23 19 20 20 25 8 33 -10 7 -11 10 -2 10 6 0 12 6 12 14 0 20 -41 110 -54 118 -6 4 -7 8 -2 8 6 0 -11 20 -37 44 -26 24 -47 48 -47 55 0 6 -5 11 -11 11 -5 0 -8 4 -5 8 3 5 -4 16 -15 25 -10 9 -19 14 -19 10 0 -4 -16 10 -35 30 -19 20 -35 39 -35 42 0 2 20 -9 44 -26 75 -53 85 -16 14 54 -48 49 -49 59 -2 17 26 -23 39 -28 44 -20 5 9 10 6 15 -9 3 -12 11 -18 17 -15 5 4 6 9 2 13 -26 19 -97 101 -92 106 3 3 22 -9 44 -26 21 -17 40 -26 42 -20 2 6 9 8 15 4 6 -4 1 8 -12 26 -13 18 -21 34 -18 37 7 7 55 -42 78 -79 22 -38 49 -44 49 -13 0 13 6 23 13 23 9 0 13 -11 11 -31 -1 -17 3 -48 9 -69 l10 -37 152 0 c207 0 195 -14 193 230 0 102 -5 195 -11 206 -12 29 -43 34 -201 34 -129 0 -133 1 -154 25 -18 21 -22 38 -22 96 0 53 3 68 13 63 10 -6 10 -4 0 7 -15 16 -17 89 -3 89 6 0 10 12 10 28 0 56 -2 57 -223 60 -178 3 -207 1 -221 -13z"/>
<path d="M1027 1253 c-4 -3 -7 -17 -7 -30 0 -18 -7 -25 -30 -30 -20 -4 -32 -13 -36 -28 -10 -40 -1 -58 34 -67 25 -7 32 -14 32 -32 0 -16 7 -26 23 -29 41 -11 62 -2 67 29 4 22 12 30 34 34 26 4 30 10 32 42 3 35 1 38 -29 46 -24 6 -33 14 -35 34 -2 17 -11 28 -25 32 -29 8 -52 7 -60 -1z m67 -45 c9 -25 18 -30 42 -27 12 1 22 -23 17 -40 -2 -9 -18 -22 -34 -28 -17 -7 -33 -20 -35 -30 -7 -25 -56 -30 -53 -5 3 34 -1 42 -25 42 -30 0 -40 13 -31 41 4 13 14 19 27 17 14 -2 22 3 24 16 1 10 9 23 16 27 11 7 11 9 0 9 -7 0 -11 4 -8 9 11 17 49 -2 60 -31z"/>
</g>
</svg>
